<?xml version="1.0" standalone="no"?>
<!DOCTYPE svg PUBLIC "-//W3C//DTD SVG 20010904//EN"
 "http://www.w3.org/TR/2001/REC-SVG-20010904/DTD/svg10.dtd">
<svg version="1.0" xmlns="http://www.w3.org/2000/svg"
 width="1536.000000pt" height="1024.000000pt" viewBox="0 0 1536.000000 1024.000000"
 preserveAspectRatio="xMidYMid meet">

<g transform="translate(0.000000,1024.000000) scale(0.100000,-0.100000)"
fill="#000000" stroke="none">
<path d="M7380 8849 c-254 -18 -538 -87 -790 -191 -481 -198 -956 -602 -1240
-1052 -208 -330 -337 -697 -386 -1097 -22 -184 -15 -526 15 -684 98 -521 376
-1034 946 -1745 165 -206 234 -288 605 -721 91 -105 201 -236 245 -289 44 -54
118 -144 165 -201 200 -243 434 -558 635 -853 107 -158 114 -175 68 -176 -25
0 -92 -72 -109 -115 -22 -60 -15 -132 19 -184 19 -28 45 -49 94 -73 61 -30 76
-33 148 -32 59 1 94 7 133 24 178 77 191 288 24 367 l-59 27 35 61 c64 109
274 438 356 555 164 236 421 569 695 900 1041 1256 1386 1839 1497 2525 21
131 24 420 6 565 -79 612 -360 1164 -818 1610 -159 155 -304 270 -466 371
-530 329 -1112 460 -1818 408z m690 -264 c363 -50 667 -160 979 -352 542 -334
925 -841 1105 -1461 52 -178 76 -333 83 -518 25 -702 -287 -1292 -1378 -2605
-459 -552 -734 -929 -987 -1352 -98 -163 -101 -168 -115 -145 -338 543 -643
941 -1252 1633 -337 383 -705 867 -895 1180 -352 579 -464 1037 -385 1584 110
763 593 1427 1300 1786 289 146 546 223 867 260 155 18 516 12 678 -10z"/>
<path d="M7408 8335 c-271 -33 -513 -109 -763 -239 -225 -116 -378 -228 -550
-401 -349 -349 -563 -803 -616 -1304 -16 -153 -6 -426 20 -551 96 -463 409
-930 1055 -1575 232 -231 499 -483 721 -680 50 -44 133 -118 185 -165 141
-127 222 -195 247 -208 33 -18 104 -14 138 7 33 21 105 86 435 395 1089 1022
1515 1559 1654 2087 92 347 72 693 -65 1104 -280 842 -1020 1439 -1901 1534
-129 14 -426 12 -560 -4z m517 -175 c352 -30 666 -141 961 -339 407 -272 689
-656 840 -1144 65 -208 79 -307 79 -547 0 -170 -4 -233 -18 -298 -40 -185
-129 -399 -242 -582 -228 -366 -687 -856 -1530 -1630 -110 -101 -210 -194
-223 -207 -13 -13 -25 -23 -28 -23 -7 0 -29 19 -260 224 -646 575 -1150 1083
-1406 1416 -302 394 -429 705 -445 1085 -18 459 133 918 426 1290 82 106 254
273 361 352 299 223 697 374 1065 406 90 8 308 6 420 -3z"/>
<path d="M7424 7391 c-54 -24 -114 -89 -149 -157 -36 -71 -45 -180 -21 -238 9
-21 16 -42 16 -46 0 -12 -176 -96 -239 -114 -76 -22 -185 -21 -239 4 -71 32
-104 64 -200 192 -51 68 -108 134 -128 147 -77 53 -190 34 -248 -42 -79 -104
-178 -575 -177 -846 1 -118 -1 -128 -33 -210 -53 -132 -69 -205 -64 -291 5
-89 27 -136 90 -197 72 -70 223 -124 398 -143 128 -13 482 -13 837 1 318 13
453 7 723 -31 389 -56 810 -38 1104 46 201 57 405 171 509 284 158 170 186
439 59 570 -58 60 -113 78 -272 90 -217 17 -411 69 -597 161 -90 44 -103 54
-113 85 -11 31 -15 34 -51 34 -58 0 -118 44 -119 88 0 26 -5 35 -26 42 -14 6
-36 7 -48 4 -18 -4 -41 7 -95 47 -39 28 -71 57 -70 63 6 49 0 56 -49 56 -43 0
-58 6 -123 53 -57 41 -75 60 -79 83 -5 26 -10 30 -50 34 -35 5 -65 20 -130 68
-252 185 -314 209 -416 163z m159 -132 c47 -24 257 -169 257 -177 0 -3 -9 -16
-21 -28 -19 -20 -24 -21 -52 -9 -106 44 -231 40 -332 -9 -27 -14 -52 -23 -55
-20 -3 3 -5 33 -4 67 0 69 16 106 67 161 41 43 77 47 140 15z m-1188 -191 c15
-7 53 -51 86 -98 79 -116 164 -200 245 -241 58 -29 78 -34 159 -37 51 -2 116
1 146 7 68 15 205 80 341 163 128 78 209 104 295 94 31 -4 59 -8 61 -10 2 -2
-10 -23 -27 -47 -33 -44 -39 -77 -19 -97 21 -21 42 -13 90 33 l48 45 74 -53
c41 -28 75 -56 76 -61 0 -4 -11 -21 -25 -38 -29 -35 -31 -54 -8 -80 22 -25 27
-24 78 23 l44 40 73 -52 c40 -29 75 -54 77 -56 3 -2 -6 -14 -18 -27 -16 -17
-22 -33 -19 -57 4 -48 42 -52 83 -9 16 16 33 30 39 30 15 0 106 -63 106 -73 0
-5 -9 -20 -20 -34 -24 -30 -26 -71 -5 -79 33 -13 73 11 155 92 l87 85 122 -61
c124 -62 317 -130 426 -151 l60 -11 -65 -24 c-36 -13 -132 -38 -215 -55 -249
-51 -305 -68 -424 -125 -95 -47 -125 -67 -185 -127 -39 -40 -82 -93 -94 -119
-21 -45 -24 -47 -54 -42 -50 9 -291 61 -393 85 -138 31 -332 67 -410 74 -141
13 -142 10 27 87 353 162 420 183 613 193 147 8 157 11 153 38 -5 34 -93 49
-248 43 -180 -7 -285 -41 -640 -208 -192 -91 -170 -88 -235 -32 l-55 48 102
37 c57 20 164 64 238 99 222 102 385 150 518 150 59 0 92 13 92 36 0 26 -52
37 -170 37 -175 1 -291 -32 -590 -168 -69 -31 -159 -68 -200 -81 l-74 -25 -64
64 -64 64 67 8 c73 7 203 49 355 112 128 54 247 83 340 83 73 0 100 9 100 35
0 27 -44 36 -175 37 -157 1 -191 -6 -397 -83 -165 -62 -209 -74 -323 -88 l-70
-9 -55 47 c-141 119 -295 227 -368 258 -24 10 -32 18 -28 31 3 10 13 44 21 77
33 124 47 164 66 189 23 29 36 31 74 14z m1617 -105 c35 -25 67 -50 72 -55 6
-4 1 -18 -13 -32 l-23 -24 -78 50 -79 50 27 28 c15 15 28 28 29 29 2 1 31 -20
65 -46z m248 -169 c39 -26 70 -49 70 -52 0 -3 -12 -18 -26 -33 l-27 -28 -56
40 c-31 23 -65 47 -75 55 -19 13 -19 14 4 39 13 14 27 25 32 25 4 0 40 -21 78
-46z m216 -156 c24 -17 44 -34 44 -38 0 -4 -11 -17 -24 -29 l-24 -23 -50 35
-50 34 26 27 c15 14 28 26 30 26 2 0 24 -14 48 -32z m-2172 -43 c123 -77 314
-237 501 -420 l160 -156 -121 5 c-258 12 -489 56 -614 119 l-65 32 3 120 c1
66 9 169 17 228 8 59 15 112 15 117 0 18 16 11 104 -45z m3217 -325 c45 -12
79 -52 79 -92 0 -139 -288 -293 -660 -352 -225 -36 -590 -44 -590 -13 0 25
130 134 207 175 110 58 162 74 386 122 215 47 303 77 394 136 66 43 97 47 184
24z m-3256 -273 c141 -50 380 -88 655 -102 344 -18 546 -45 864 -115 436 -96
588 -113 871 -98 417 23 730 111 893 254 62 54 67 40 14 -42 -91 -140 -273
-248 -540 -318 -55 -15 -131 -29 -167 -33 l-65 -6 0 40 c0 46 -14 63 -51 63
-34 0 -45 -14 -52 -68 -3 -24 -8 -47 -12 -50 -4 -4 -120 -7 -258 -7 -254 1
-280 3 -577 51 -75 12 -170 17 -331 18 l-227 1 -4 72 c-5 78 -18 103 -53 103
-34 0 -42 -17 -49 -100 -4 -41 -9 -77 -12 -79 -3 -3 -107 -7 -233 -9 l-227 -4
-2 42 c-5 75 -4 75 102 72 100 -4 136 6 136 37 0 40 -16 43 -283 66 -99 8
-228 22 -288 31 -104 15 -111 15 -130 -1 -22 -21 -25 -48 -6 -64 19 -15 131
-37 265 -51 l112 -13 0 -60 0 -60 -117 6 c-196 11 -331 57 -388 132 -48 62
-42 183 15 312 l20 45 27 -20 c16 -11 60 -31 98 -45z"/>
</g>
</svg>
